<svg id="file-text-outline" xmlns="http://www.w3.org/2000/svg" width="20.047" height="25.059" viewBox="0 0 20.047 25.059">
  <g id="Layer_2" data-name="Layer 2" transform="translate(0 0)">
    <g id="file-text">
      <path id="Path_6976" data-name="Path 6976" d="M16.77,16H9.253a1.253,1.253,0,1,0,0,2.506H16.77a1.253,1.253,0,1,0,0-2.506Z" transform="translate(-2.988 1.541)" fill="#fff"/>
      <path id="Path_6977" data-name="Path 6977" d="M9.253,14.506h3.759a1.253,1.253,0,0,0,0-2.506H9.253a1.253,1.253,0,0,0,0,2.506Z" transform="translate(-2.988 0.529)" fill="#fff"/>
      <path id="Path_6978" data-name="Path 6978" d="M23.721,9.931,16.905,2.414A1.253,1.253,0,0,0,15.978,2H7.207A3.17,3.17,0,0,0,4,5.132V23.926a3.17,3.17,0,0,0,3.207,3.132H20.839a3.17,3.17,0,0,0,3.207-3.132V10.771a1.253,1.253,0,0,0-.326-.839ZM16.529,5.759l3.433,3.759H17.456a.99.99,0,0,1-.927-1.065Zm4.31,18.794H7.207a.664.664,0,0,1-.7-.626V5.132a.664.664,0,0,1,.7-.626h6.816V8.453a3.5,3.5,0,0,0,3.4,3.571h4.122v11.9a.664.664,0,0,1-.7.626Z" transform="translate(-4 -2)" fill="#fff"/>
    </g>
  </g>
</svg>
