<svg id="people-outline" xmlns="http://www.w3.org/2000/svg" width="27.981" height="25.183" viewBox="0 0 27.981 25.183">
  <g id="Layer_2" data-name="Layer 2" transform="translate(0 0)">
    <g id="people">
      <path id="Path_6973" data-name="Path 6973" d="M10.6,14.192A5.6,5.6,0,1,0,5,8.6a5.6,5.6,0,0,0,5.6,5.6Zm0-8.394A2.8,2.8,0,1,1,7.8,8.6,2.8,2.8,0,0,1,10.6,5.8Z" transform="translate(-0.803 -3)" fill="#fff"/>
      <path id="Path_6974" data-name="Path 6974" d="M18.2,15.394A4.2,4.2,0,1,0,14,11.2,4.2,4.2,0,0,0,18.2,15.394Zm0-5.6a1.4,1.4,0,1,1-1.4,1.4A1.4,1.4,0,0,1,18.2,9.8Z" transform="translate(2.789 -1.404)" fill="#fff"/>
      <path id="Path_6975" data-name="Path 6975" d="M22.986,14.4A7,7,0,0,0,18.7,15.864,9.793,9.793,0,0,0,2,22.79a1.4,1.4,0,1,0,2.8,0,7,7,0,0,1,13.99,0,1.4,1.4,0,1,0,2.8,0,9.653,9.653,0,0,0-1.2-4.687,4.2,4.2,0,0,1,6.8,3.288,1.4,1.4,0,0,0,2.8,0A7,7,0,0,0,22.986,14.4Z" transform="translate(-2 0.994)" fill="#fff"/>
    </g>
  </g>
</svg>
