<svg xmlns="http://www.w3.org/2000/svg" width="31.648" height="31.648" viewBox="0 0 31.648 31.648">
  <g id="settings" transform="translate(1.5 1.5)">
    <ellipse id="Ellipse_723" data-name="Ellipse 723" cx="3.5" cy="4" rx="3.5" ry="4" transform="translate(11 10.005)" fill="none" stroke="#fff" stroke-linecap="round" stroke-linejoin="round" stroke-width="3"/>
    <path id="Path_6979" data-name="Path 6979" d="M24.961,19.231a2.149,2.149,0,0,0,.43,2.37l.078.078a2.606,2.606,0,1,1-3.685,3.685l-.078-.078a2.166,2.166,0,0,0-3.672,1.537v.221a2.6,2.6,0,1,1-5.209,0v-.117a2.149,2.149,0,0,0-1.406-1.966,2.149,2.149,0,0,0-2.37.43l-.078.078a2.606,2.606,0,1,1-3.685-3.685l.078-.078a2.166,2.166,0,0,0-1.537-3.672H3.6a2.6,2.6,0,1,1,0-5.209h.117a2.149,2.149,0,0,0,1.966-1.406,2.149,2.149,0,0,0-.43-2.37L5.18,8.969A2.606,2.606,0,1,1,8.865,5.284l.078.078a2.149,2.149,0,0,0,2.37.43h.1a2.149,2.149,0,0,0,1.3-1.966V3.6a2.6,2.6,0,1,1,5.209,0v.117A2.166,2.166,0,0,0,21.6,5.258l.078-.078a2.606,2.606,0,1,1,3.685,3.685l-.078.078a2.149,2.149,0,0,0-.43,2.37v.1a2.149,2.149,0,0,0,1.966,1.3h.221a2.6,2.6,0,1,1,0,5.209h-.117A2.149,2.149,0,0,0,24.961,19.231Z" transform="translate(-1 -1)" fill="none" stroke="#fff" stroke-linecap="round" stroke-linejoin="round" stroke-width="3"/>
  </g>
</svg>
